<svg width="1200" height="300" viewBox="0 0 1200 300" fill="none" xmlns="http://www.w3.org/2000/svg">
  <rect width="1200" height="300" rx="28" fill="#0A0A0C"/>
  <path d="M72 72h1056v156H72V72Z" fill="#fff" fill-opacity=".045" stroke="#fff" stroke-opacity=".1"/>
  <path d="M164 112h292M164 150h220M164 188h330" stroke="#fff" stroke-width="12" stroke-linecap="round" stroke-opacity=".2"/>
  <path d="M760 92h250a42 42 0 0 1 42 42v52a42 42 0 0 1-42 42H760a42 42 0 0 1-42-42v-52a42 42 0 0 1 42-42Z" fill="#FF6262" fill-opacity=".15"/>
  <path d="M794 124h180M794 160h120M794 196h158" stroke="#FFB4B4" stroke-width="11" stroke-linecap="round"/>
  <path d="M664 76v168" stroke="#FF6262" stroke-width="6" stroke-linecap="round"/>
  <text x="96" y="265" fill="#FF8D8D" font-family="Arial, sans-serif" font-size="22" font-weight="700" letter-spacing="5">SUPPORT / ROUTED TICKETS</text>
</svg>
