<?xml version="1.0" encoding="UTF-8"?>
<svg xmlns="http://www.w3.org/2000/svg" width="1000" height="920" viewBox="0 0 1000 920">
  <defs>
    <linearGradient id="mesh" x1="0" y1="0" x2="1000" y2="920" gradientUnits="userSpaceOnUse">
      <stop stop-color="#1b080d"/>
      <stop offset=".42" stop-color="#05070a"/>
      <stop offset="1" stop-color="#141008"/>
    </linearGradient>
    <linearGradient id="line" x1="0" y1="0" x2="1" y2="0">
      <stop stop-color="#ff6262"/>
      <stop offset=".58" stop-color="#ff9f7a"/>
      <stop offset="1" stop-color="#ffd166"/>
    </linearGradient>
    <linearGradient id="glass" x1="0" y1="0" x2="1" y2="1">
      <stop stop-color="#172027" stop-opacity=".96"/>
      <stop offset=".48" stop-color="#0c1117" stop-opacity=".98"/>
      <stop offset="1" stop-color="#090c10"/>
    </linearGradient>
    <linearGradient id="glassWarm" x1="0" y1="0" x2="1" y2="1">
      <stop stop-color="#ff6262" stop-opacity=".16"/>
      <stop offset=".5" stop-color="#111820" stop-opacity=".96"/>
      <stop offset="1" stop-color="#090c10"/>
    </linearGradient>
    <pattern id="grid" width="42" height="42" patternUnits="userSpaceOnUse">
      <path d="M42 0H0V42" fill="none" stroke="#ffffff" stroke-opacity=".055"/>
    </pattern>
    <pattern id="fine" width="18" height="18" patternUnits="userSpaceOnUse">
      <circle cx="2" cy="2" r=".7" fill="#ffffff" fill-opacity=".12"/>
    </pattern>
    <filter id="shadow" x="-20%" y="-20%" width="140%" height="140%">
      <feDropShadow dx="0" dy="26" stdDeviation="28" flood-color="#000000" flood-opacity=".42"/>
    </filter>
    <filter id="glow" x="-60%" y="-60%" width="220%" height="220%">
      <feGaussianBlur stdDeviation="34"/>
    </filter>
  </defs>
  <rect width="1000" height="920" fill="#05070a"/>
  <rect width="1000" height="920" fill="url(#mesh)"/>
  <rect width="1000" height="920" fill="url(#grid)" opacity=".78"/>
  <rect width="1000" height="920" fill="url(#fine)" opacity=".28"/>
  <circle cx="84" cy="120" r="230" fill="#ff6262" fill-opacity=".08" filter="url(#glow)"/>
  <circle cx="920" cy="718" r="260" fill="#ffd166" fill-opacity=".045" filter="url(#glow)"/>
  
      
    <g>
      
    <g transform="translate(62 42) scale(0.75)">
      <rect width="64" height="64" rx="12" fill="#090c10" stroke="#ffffff" stroke-opacity=".16"/>
      <path d="M14 45V19h7l11 14 11-14h7v26h-8V31L32 44 22 31v14h-8Z" fill="#f7f7f7"/>
      <path d="M12 10h40v4H12V10Zm0 40h40v4H12v-4Z" fill="#ff6262"/>
      <path d="M8 16h4v32H8V16Zm44 0h4v32h-4V16Z" fill="#ff9f7a"/>
    </g>
  
      <text x="126" y="66" fill="#f7f7f7" fill-opacity="1" font-family="Inter, Arial, Helvetica, sans-serif" font-size="18" font-weight="800" text-anchor="start" letter-spacing="0">MxF Labs</text>
      <text x="126" y="88" fill="#78838d" fill-opacity="1" font-family="Inter, Arial, Helvetica, sans-serif" font-size="10" font-weight="800" text-anchor="start" letter-spacing="1.8">SOFTWARE STUDIO</text>
      <rect x="706" y="48" width="232" height="40" rx="12" fill="#ffffff" fill-opacity=".045" stroke="#ffffff" stroke-opacity=".11"/>
      <text x="728" y="73" fill="#f5b0b0" fill-opacity="1" font-family="Inter, Arial, Helvetica, sans-serif" font-size="11" font-weight="800" text-anchor="start" letter-spacing="1.4">MXF FACTIONS</text>
      <text x="920" y="73" fill="#77828c" fill-opacity="1" font-family="Inter, Arial, Helvetica, sans-serif" font-size="11" font-weight="800" text-anchor="end" letter-spacing="1.4">04 / GUI</text>
    </g>
  
      
    <g>
      <rect x="72" y="188" width="524" height="390" rx="22" fill="#080c11" stroke="#ffffff" stroke-opacity=".12" filter="url(#shadow)"/>
      <rect x="90" y="206" width="488" height="354" rx="15" fill="#ffffff" fill-opacity=".025" stroke="#ffffff" stroke-opacity=".08"/>
      <text x="108" y="244" fill="#f7f7f7" fill-opacity="1" font-family="Inter, Arial, Helvetica, sans-serif" font-size="18" font-weight="800" text-anchor="start" letter-spacing="0">Inventory-native control layer</text>
      <text x="558" y="244" fill="#ff6262" fill-opacity="1" font-family="Inter, Arial, Helvetica, sans-serif" font-size="11" font-weight="900" text-anchor="end" letter-spacing="2">GUI</text>
      <rect x="100" y="268" width="44" height="44" rx="7" fill="#ffffff" fill-opacity=".045" stroke="#ffffff" stroke-opacity=".09"/><rect x="153" y="268" width="44" height="44" rx="7" fill="#ffffff" fill-opacity=".045" stroke="#ffffff" stroke-opacity=".09"/><rect x="206" y="268" width="44" height="44" rx="7" fill="#ffffff" fill-opacity=".045" stroke="#ffffff" stroke-opacity=".09"/><rect x="259" y="268" width="44" height="44" rx="7" fill="#ffffff" fill-opacity=".045" stroke="#ffffff" stroke-opacity=".09"/><rect x="312" y="268" width="44" height="44" rx="7" fill="#ff6262" fill-opacity=".18" stroke="#ffffff" stroke-opacity=".16"/><rect x="365" y="268" width="44" height="44" rx="7" fill="#ffffff" fill-opacity=".045" stroke="#ffffff" stroke-opacity=".09"/><rect x="418" y="268" width="44" height="44" rx="7" fill="#ffffff" fill-opacity=".045" stroke="#ffffff" stroke-opacity=".09"/><rect x="471" y="268" width="44" height="44" rx="7" fill="#ffffff" fill-opacity=".045" stroke="#ffffff" stroke-opacity=".09"/><rect x="524" y="268" width="44" height="44" rx="7" fill="#ffffff" fill-opacity=".045" stroke="#ffffff" stroke-opacity=".09"/><rect x="100" y="321" width="44" height="44" rx="7" fill="#ffffff" fill-opacity=".045" stroke="#ffffff" stroke-opacity=".09"/><rect x="153" y="321" width="44" height="44" rx="7" fill="#ffffff" fill-opacity=".045" stroke="#ffffff" stroke-opacity=".09"/><rect x="206" y="321" width="44" height="44" rx="7" fill="#ffffff" fill-opacity=".045" stroke="#ffffff" stroke-opacity=".09"/><rect x="259" y="321" width="44" height="44" rx="7" fill="#ffffff" fill-opacity=".045" stroke="#ffffff" stroke-opacity=".09"/><rect x="312" y="321" width="44" height="44" rx="7" fill="#ffd166" fill-opacity=".24" stroke="#ffffff" stroke-opacity=".16"/><rect x="365" y="321" width="44" height="44" rx="7" fill="#ffffff" fill-opacity=".045" stroke="#ffffff" stroke-opacity=".09"/><rect x="418" y="321" width="44" height="44" rx="7" fill="#ffffff" fill-opacity=".045" stroke="#ffffff" stroke-opacity=".09"/><rect x="471" y="321" width="44" height="44" rx="7" fill="#ffffff" fill-opacity=".045" stroke="#ffffff" stroke-opacity=".09"/><rect x="524" y="321" width="44" height="44" rx="7" fill="#ffffff" fill-opacity=".045" stroke="#ffffff" stroke-opacity=".09"/><rect x="100" y="374" width="44" height="44" rx="7" fill="#ffffff" fill-opacity=".045" stroke="#ffffff" stroke-opacity=".09"/><rect x="153" y="374" width="44" height="44" rx="7" fill="#ffffff" fill-opacity=".045" stroke="#ffffff" stroke-opacity=".09"/><rect x="206" y="374" width="44" height="44" rx="7" fill="#ff6262" fill-opacity=".18" stroke="#ffffff" stroke-opacity=".16"/><rect x="259" y="374" width="44" height="44" rx="7" fill="#ffffff" fill-opacity=".045" stroke="#ffffff" stroke-opacity=".09"/><rect x="312" y="374" width="44" height="44" rx="7" fill="#ffd166" fill-opacity=".24" stroke="#ffffff" stroke-opacity=".16"/><rect x="365" y="374" width="44" height="44" rx="7" fill="#ffffff" fill-opacity=".045" stroke="#ffffff" stroke-opacity=".09"/><rect x="418" y="374" width="44" height="44" rx="7" fill="#ff6262" fill-opacity=".18" stroke="#ffffff" stroke-opacity=".16"/><rect x="471" y="374" width="44" height="44" rx="7" fill="#ffffff" fill-opacity=".045" stroke="#ffffff" stroke-opacity=".09"/><rect x="524" y="374" width="44" height="44" rx="7" fill="#ffffff" fill-opacity=".045" stroke="#ffffff" stroke-opacity=".09"/><rect x="100" y="427" width="44" height="44" rx="7" fill="#ffffff" fill-opacity=".045" stroke="#ffffff" stroke-opacity=".09"/><rect x="153" y="427" width="44" height="44" rx="7" fill="#ff6262" fill-opacity=".18" stroke="#ffffff" stroke-opacity=".16"/><rect x="206" y="427" width="44" height="44" rx="7" fill="#ffffff" fill-opacity=".045" stroke="#ffffff" stroke-opacity=".09"/><rect x="259" y="427" width="44" height="44" rx="7" fill="#ffffff" fill-opacity=".045" stroke="#ffffff" stroke-opacity=".09"/><rect x="312" y="427" width="44" height="44" rx="7" fill="#ffd166" fill-opacity=".24" stroke="#ffffff" stroke-opacity=".16"/><rect x="365" y="427" width="44" height="44" rx="7" fill="#ffffff" fill-opacity=".045" stroke="#ffffff" stroke-opacity=".09"/><rect x="418" y="427" width="44" height="44" rx="7" fill="#ff6262" fill-opacity=".18" stroke="#ffffff" stroke-opacity=".16"/><rect x="471" y="427" width="44" height="44" rx="7" fill="#ffffff" fill-opacity=".045" stroke="#ffffff" stroke-opacity=".09"/><rect x="524" y="427" width="44" height="44" rx="7" fill="#ffffff" fill-opacity=".045" stroke="#ffffff" stroke-opacity=".09"/><rect x="100" y="480" width="44" height="44" rx="7" fill="#ffffff" fill-opacity=".045" stroke="#ffffff" stroke-opacity=".09"/><rect x="153" y="480" width="44" height="44" rx="7" fill="#ffffff" fill-opacity=".045" stroke="#ffffff" stroke-opacity=".09"/><rect x="206" y="480" width="44" height="44" rx="7" fill="#ffffff" fill-opacity=".045" stroke="#ffffff" stroke-opacity=".09"/><rect x="259" y="480" width="44" height="44" rx="7" fill="#ffffff" fill-opacity=".045" stroke="#ffffff" stroke-opacity=".09"/><rect x="312" y="480" width="44" height="44" rx="7" fill="#ff6262" fill-opacity=".18" stroke="#ffffff" stroke-opacity=".16"/><rect x="365" y="480" width="44" height="44" rx="7" fill="#ffffff" fill-opacity=".045" stroke="#ffffff" stroke-opacity=".09"/><rect x="418" y="480" width="44" height="44" rx="7" fill="#ffffff" fill-opacity=".045" stroke="#ffffff" stroke-opacity=".09"/><rect x="471" y="480" width="44" height="44" rx="7" fill="#ffffff" fill-opacity=".045" stroke="#ffffff" stroke-opacity=".09"/><rect x="524" y="480" width="44" height="44" rx="7" fill="#ffffff" fill-opacity=".045" stroke="#ffffff" stroke-opacity=".09"/>
      <rect x="100" y="526" width="97" height="26" rx="6" fill="#ffffff" fill-opacity=".06"/>
      <rect x="206" y="526" width="150" height="26" rx="6" fill="#ffffff" fill-opacity=".06"/>
      <rect x="418" y="526" width="97" height="26" rx="6" fill="#ffffff" fill-opacity=".06"/>
    </g>
  
      
    <text x="590" y="170" fill="#ffd166" fill-opacity="1" font-family="Inter, Arial, Helvetica, sans-serif" font-size="12" font-weight="900" text-anchor="start" letter-spacing="4">PLAYER EXPERIENCE</text>
    <text x="590" y="225" fill="#f7f7f7" fill-opacity="1" font-family="Inter, Arial, Helvetica, sans-serif" font-size="43" font-weight="900"><tspan x="590" dy="0">A full menu</tspan><tspan x="590" dy="46">framework, not a</tspan><tspan x="590" dy="46">pile of</tspan><tspan x="590" dy="46">commands.</tspan></text>
    <text x="590" y="439" fill="#9aa3ad" fill-opacity="1" font-family="Inter, Arial, Helvetica, sans-serif" font-size="16" font-weight="600"><tspan x="590" dy="0">Main menus, faction menus, upgrades, shields,</tspan><tspan x="590" dy="27">vaults, warps, settings, permissions, shops,</tspan><tspan x="590" dy="27">battle pass, missions, KOTH, outposts,</tspan><tspan x="590" dy="27">statistics, and admin panels share one</tspan><tspan x="590" dy="27">interface language.</tspan></text>
  
      <g>
        <rect x="590" y="572" width="102" height="34" rx="9" fill="#ffffff" fill-opacity=".045" stroke="#ffffff" stroke-opacity=".09"/><text x="641" y="594" fill="#d2d8de" fill-opacity="1" font-family="Inter, Arial, Helvetica, sans-serif" font-size="10" font-weight="800" text-anchor="middle" letter-spacing="0">Operations Center</text><rect x="703" y="572" width="98" height="34" rx="9" fill="#ffffff" fill-opacity=".045" stroke="#ffffff" stroke-opacity=".09"/><text x="752" y="594" fill="#d2d8de" fill-opacity="1" font-family="Inter, Arial, Helvetica, sans-serif" font-size="10" font-weight="800" text-anchor="middle" letter-spacing="0">War Center</text><rect x="816" y="572" width="98" height="34" rx="9" fill="#ffffff" fill-opacity=".045" stroke="#ffffff" stroke-opacity=".09"/><text x="865" y="594" fill="#d2d8de" fill-opacity="1" font-family="Inter, Arial, Helvetica, sans-serif" font-size="10" font-weight="800" text-anchor="middle" letter-spacing="0">Roster</text><rect x="590" y="622" width="102" height="34" rx="9" fill="#ffffff" fill-opacity=".045" stroke="#ffffff" stroke-opacity=".09"/><text x="641" y="644" fill="#d2d8de" fill-opacity="1" font-family="Inter, Arial, Helvetica, sans-serif" font-size="10" font-weight="800" text-anchor="middle" letter-spacing="0">Alts</text><rect x="703" y="622" width="98" height="34" rx="9" fill="#ffffff" fill-opacity=".045" stroke="#ffffff" stroke-opacity=".09"/><text x="752" y="644" fill="#d2d8de" fill-opacity="1" font-family="Inter, Arial, Helvetica, sans-serif" font-size="10" font-weight="800" text-anchor="middle" letter-spacing="0">Audit Logs</text><rect x="816" y="622" width="98" height="34" rx="9" fill="#ffffff" fill-opacity=".045" stroke="#ffffff" stroke-opacity=".09"/><text x="865" y="644" fill="#d2d8de" fill-opacity="1" font-family="Inter, Arial, Helvetica, sans-serif" font-size="10" font-weight="800" text-anchor="middle" letter-spacing="0">Upgrades</text><rect x="590" y="672" width="102" height="34" rx="9" fill="#ffffff" fill-opacity=".045" stroke="#ffffff" stroke-opacity=".09"/><text x="641" y="694" fill="#d2d8de" fill-opacity="1" font-family="Inter, Arial, Helvetica, sans-serif" font-size="10" font-weight="800" text-anchor="middle" letter-spacing="0">TNT</text><rect x="703" y="672" width="98" height="34" rx="9" fill="#ffffff" fill-opacity=".045" stroke="#ffffff" stroke-opacity=".09"/><text x="752" y="694" fill="#d2d8de" fill-opacity="1" font-family="Inter, Arial, Helvetica, sans-serif" font-size="10" font-weight="800" text-anchor="middle" letter-spacing="0">Shields</text><rect x="816" y="672" width="98" height="34" rx="9" fill="#ffffff" fill-opacity=".045" stroke="#ffffff" stroke-opacity=".09"/><text x="865" y="694" fill="#d2d8de" fill-opacity="1" font-family="Inter, Arial, Helvetica, sans-serif" font-size="10" font-weight="800" text-anchor="middle" letter-spacing="0">Raid Control</text><rect x="590" y="722" width="102" height="34" rx="9" fill="#ffffff" fill-opacity=".045" stroke="#ffffff" stroke-opacity=".09"/><text x="641" y="744" fill="#d2d8de" fill-opacity="1" font-family="Inter, Arial, Helvetica, sans-serif" font-size="10" font-weight="800" text-anchor="middle" letter-spacing="0">Raid Claims</text><rect x="703" y="722" width="98" height="34" rx="9" fill="#ffffff" fill-opacity=".045" stroke="#ffffff" stroke-opacity=".09"/><text x="752" y="744" fill="#d2d8de" fill-opacity="1" font-family="Inter, Arial, Helvetica, sans-serif" font-size="10" font-weight="800" text-anchor="middle" letter-spacing="0">Corners</text><rect x="816" y="722" width="98" height="34" rx="9" fill="#ffffff" fill-opacity=".045" stroke="#ffffff" stroke-opacity=".09"/><text x="865" y="744" fill="#d2d8de" fill-opacity="1" font-family="Inter, Arial, Helvetica, sans-serif" font-size="10" font-weight="800" text-anchor="middle" letter-spacing="0">Vaults</text><rect x="590" y="772" width="102" height="34" rx="9" fill="#ffffff" fill-opacity=".045" stroke="#ffffff" stroke-opacity=".09"/><text x="641" y="794" fill="#d2d8de" fill-opacity="1" font-family="Inter, Arial, Helvetica, sans-serif" font-size="10" font-weight="800" text-anchor="middle" letter-spacing="0">Warps</text><rect x="703" y="772" width="98" height="34" rx="9" fill="#ffffff" fill-opacity=".045" stroke="#ffffff" stroke-opacity=".09"/><text x="752" y="794" fill="#d2d8de" fill-opacity="1" font-family="Inter, Arial, Helvetica, sans-serif" font-size="10" font-weight="800" text-anchor="middle" letter-spacing="0">Permissions</text><rect x="816" y="772" width="98" height="34" rx="9" fill="#ffffff" fill-opacity=".045" stroke="#ffffff" stroke-opacity=".09"/><text x="865" y="794" fill="#d2d8de" fill-opacity="1" font-family="Inter, Arial, Helvetica, sans-serif" font-size="10" font-weight="800" text-anchor="middle" letter-spacing="0">Settings</text><rect x="590" y="822" width="102" height="34" rx="9" fill="#ffffff" fill-opacity=".045" stroke="#ffffff" stroke-opacity=".09"/><text x="641" y="844" fill="#d2d8de" fill-opacity="1" font-family="Inter, Arial, Helvetica, sans-serif" font-size="10" font-weight="800" text-anchor="middle" letter-spacing="0">Outposts</text><rect x="703" y="822" width="98" height="34" rx="9" fill="#ffffff" fill-opacity=".045" stroke="#ffffff" stroke-opacity=".09"/><text x="752" y="844" fill="#d2d8de" fill-opacity="1" font-family="Inter, Arial, Helvetica, sans-serif" font-size="10" font-weight="800" text-anchor="middle" letter-spacing="0">KOTH</text><rect x="816" y="822" width="98" height="34" rx="9" fill="#ffffff" fill-opacity=".045" stroke="#ffffff" stroke-opacity=".09"/><text x="865" y="844" fill="#d2d8de" fill-opacity="1" font-family="Inter, Arial, Helvetica, sans-serif" font-size="10" font-weight="800" text-anchor="middle" letter-spacing="0">Seasons</text><rect x="590" y="872" width="102" height="34" rx="9" fill="#ffffff" fill-opacity=".045" stroke="#ffffff" stroke-opacity=".09"/><text x="641" y="894" fill="#d2d8de" fill-opacity="1" font-family="Inter, Arial, Helvetica, sans-serif" font-size="10" font-weight="800" text-anchor="middle" letter-spacing="0">Hall of Fame</text><rect x="703" y="872" width="98" height="34" rx="9" fill="#ffffff" fill-opacity=".045" stroke="#ffffff" stroke-opacity=".09"/><text x="752" y="894" fill="#d2d8de" fill-opacity="1" font-family="Inter, Arial, Helvetica, sans-serif" font-size="10" font-weight="800" text-anchor="middle" letter-spacing="0">Shops</text><rect x="816" y="872" width="98" height="34" rx="9" fill="#ffffff" fill-opacity=".045" stroke="#ffffff" stroke-opacity=".09"/><text x="865" y="894" fill="#d2d8de" fill-opacity="1" font-family="Inter, Arial, Helvetica, sans-serif" font-size="10" font-weight="800" text-anchor="middle" letter-spacing="0">Rewards</text>
      </g>
      <text x="72" y="830" fill="#c3cad1" fill-opacity="1" font-family="Inter, Arial, Helvetica, sans-serif" font-size="16" font-weight="800" text-anchor="start" letter-spacing="0">Configurable themes, sounds, feedback states, pagination, back buttons, close buttons, and clean text fallbacks.</text>
    
</svg>