<?xml version="1.0" encoding="UTF-8"?>
<svg xmlns="http://www.w3.org/2000/svg" width="1000" height="980" viewBox="0 0 1000 980">
  <defs>
    <linearGradient id="mesh" x1="0" y1="0" x2="1000" y2="980" gradientUnits="userSpaceOnUse">
      <stop stop-color="#1b080d"/>
      <stop offset=".42" stop-color="#05070a"/>
      <stop offset="1" stop-color="#141008"/>
    </linearGradient>
    <linearGradient id="line" x1="0" y1="0" x2="1" y2="0">
      <stop stop-color="#ff6262"/>
      <stop offset=".58" stop-color="#ff9f7a"/>
      <stop offset="1" stop-color="#ffd166"/>
    </linearGradient>
    <linearGradient id="glass" x1="0" y1="0" x2="1" y2="1">
      <stop stop-color="#172027" stop-opacity=".96"/>
      <stop offset=".48" stop-color="#0c1117" stop-opacity=".98"/>
      <stop offset="1" stop-color="#090c10"/>
    </linearGradient>
    <linearGradient id="glassWarm" x1="0" y1="0" x2="1" y2="1">
      <stop stop-color="#ff6262" stop-opacity=".16"/>
      <stop offset=".5" stop-color="#111820" stop-opacity=".96"/>
      <stop offset="1" stop-color="#090c10"/>
    </linearGradient>
    <pattern id="grid" width="42" height="42" patternUnits="userSpaceOnUse">
      <path d="M42 0H0V42" fill="none" stroke="#ffffff" stroke-opacity=".055"/>
    </pattern>
    <pattern id="fine" width="18" height="18" patternUnits="userSpaceOnUse">
      <circle cx="2" cy="2" r=".7" fill="#ffffff" fill-opacity=".12"/>
    </pattern>
    <filter id="shadow" x="-20%" y="-20%" width="140%" height="140%">
      <feDropShadow dx="0" dy="26" stdDeviation="28" flood-color="#000000" flood-opacity=".42"/>
    </filter>
    <filter id="glow" x="-60%" y="-60%" width="220%" height="220%">
      <feGaussianBlur stdDeviation="34"/>
    </filter>
  </defs>
  <rect width="1000" height="980" fill="#05070a"/>
  <rect width="1000" height="980" fill="url(#mesh)"/>
  <rect width="1000" height="980" fill="url(#grid)" opacity=".78"/>
  <rect width="1000" height="980" fill="url(#fine)" opacity=".28"/>
  <circle cx="84" cy="120" r="230" fill="#ff6262" fill-opacity=".08" filter="url(#glow)"/>
  <circle cx="920" cy="764" r="260" fill="#ffd166" fill-opacity=".045" filter="url(#glow)"/>
  
      
    <g>
      
    <g transform="translate(62 42) scale(0.75)">
      <rect width="64" height="64" rx="12" fill="#090c10" stroke="#ffffff" stroke-opacity=".16"/>
      <path d="M14 45V19h7l11 14 11-14h7v26h-8V31L32 44 22 31v14h-8Z" fill="#f7f7f7"/>
      <path d="M12 10h40v4H12V10Zm0 40h40v4H12v-4Z" fill="#ff6262"/>
      <path d="M8 16h4v32H8V16Zm44 0h4v32h-4V16Z" fill="#ff9f7a"/>
    </g>
  
      <text x="126" y="66" fill="#f7f7f7" fill-opacity="1" font-family="Inter, Arial, Helvetica, sans-serif" font-size="18" font-weight="800" text-anchor="start" letter-spacing="0">MxF Labs</text>
      <text x="126" y="88" fill="#78838d" fill-opacity="1" font-family="Inter, Arial, Helvetica, sans-serif" font-size="10" font-weight="800" text-anchor="start" letter-spacing="1.8">SOFTWARE STUDIO</text>
      <rect x="706" y="48" width="232" height="40" rx="12" fill="#ffffff" fill-opacity=".045" stroke="#ffffff" stroke-opacity=".11"/>
      <text x="728" y="73" fill="#f5b0b0" fill-opacity="1" font-family="Inter, Arial, Helvetica, sans-serif" font-size="11" font-weight="800" text-anchor="start" letter-spacing="1.4">MXF FACTIONS</text>
      <text x="920" y="73" fill="#77828c" fill-opacity="1" font-family="Inter, Arial, Helvetica, sans-serif" font-size="11" font-weight="800" text-anchor="end" letter-spacing="1.4">02 / CORE</text>
    </g>
  
      
    <text x="70" y="166" fill="#ff6262" fill-opacity="1" font-family="Inter, Arial, Helvetica, sans-serif" font-size="12" font-weight="900" text-anchor="start" letter-spacing="4">PRODUCT IDENTITY</text>
    <text x="70" y="221" fill="#f7f7f7" fill-opacity="1" font-family="Inter, Arial, Helvetica, sans-serif" font-size="48" font-weight="900"><tspan x="70" dy="0">Not a generic</tspan><tspan x="70" dy="52">factions plugin.</tspan></text>
    <text x="70" y="353" fill="#9aa3ad" fill-opacity="1" font-family="Inter, Arial, Helvetica, sans-serif" font-size="16" font-weight="600"><tspan x="70" dy="0">MxF Factions starts with the faction gameplay</tspan><tspan x="70" dy="27">server owners already understand, then turns</tspan><tspan x="70" dy="27">it into a polished operating layer for modern</tspan><tspan x="70" dy="27">competitive networks.</tspan></text>
  
      
    <g opacity="1">
      <rect x="574" y="172" width="154" height="138" rx="14" fill="url(#glass)" stroke="#ffffff" stroke-opacity=".105" filter="url(#shadow)"/>
      <path d="M592 173H710" stroke="#ff6262" stroke-opacity=".75" stroke-width="2.4" stroke-linecap="round"/>
      
      <path d="M600 196l28 8v18c0 16-12 25-28 31-16-6-28-15-28-31V204l28-8Z" fill="none" stroke="#ff6262" stroke-width="2.2" stroke-linecap="round" stroke-linejoin="round"/><path d="m589 223 9 9 17-20" fill="none" stroke="#ff6262" stroke-width="2.2" stroke-linecap="round" stroke-linejoin="round"/>
      <text x="646" y="219" fill="#f7f7f7" fill-opacity="1" font-family="Inter, Arial, Helvetica, sans-serif" font-size="18" font-weight="800" text-anchor="start" letter-spacing="0">Familiar gameplay</text>
      <text x="598" y="254" fill="#9aa3ad" fill-opacity="1" font-family="Inter, Arial, Helvetica, sans-serif" font-size="13" font-weight="500"><tspan x="598" dy="0">Classic factions loops stay</tspan><tspan x="598" dy="20">readable.</tspan></text>
    
    </g>
  
    <g opacity="1">
      <rect x="748" y="172" width="154" height="138" rx="14" fill="url(#glass)" stroke="#ffffff" stroke-opacity=".105" filter="url(#shadow)"/>
      <path d="M766 173H884" stroke="#ffd166" stroke-opacity=".75" stroke-width="2.4" stroke-linecap="round"/>
      
      <circle cx="775" cy="214" r="10" fill="none" stroke="#ffd166" stroke-width="2.2" stroke-linecap="round" stroke-linejoin="round"/><path d="M775 195v7M775 226v7M756 214h7M787 214h7M762 201l5 5M784 223l5 5M788 201l-5 5M766 223l-5 5" fill="none" stroke="#ffd166" stroke-width="2.2" stroke-linecap="round" stroke-linejoin="round"/>
      <text x="820" y="219" fill="#f7f7f7" fill-opacity="1" font-family="Inter, Arial, Helvetica, sans-serif" font-size="18" font-weight="800" text-anchor="start" letter-spacing="0">Owner tools</text>
      <text x="772" y="254" fill="#9aa3ad" fill-opacity="1" font-family="Inter, Arial, Helvetica, sans-serif" font-size="13" font-weight="500"><tspan x="772" dy="0">Admin, analytics, and</tspan><tspan x="772" dy="20">support surfaces.</tspan></text>
    
    </g>
  
    <g opacity="1">
      <rect x="574" y="340" width="154" height="138" rx="14" fill="url(#glass)" stroke="#ffffff" stroke-opacity=".105" filter="url(#shadow)"/>
      <path d="M592 341H710" stroke="#ff6262" stroke-opacity=".75" stroke-width="2.4" stroke-linecap="round"/>
      
      <path d="M600 364l28 8v18c0 16-12 25-28 31-16-6-28-15-28-31V372l28-8Z" fill="none" stroke="#ff6262" stroke-width="2.2" stroke-linecap="round" stroke-linejoin="round"/><path d="m589 391 9 9 17-20" fill="none" stroke="#ff6262" stroke-width="2.2" stroke-linecap="round" stroke-linejoin="round"/>
      <text x="646" y="387" fill="#f7f7f7" fill-opacity="1" font-family="Inter, Arial, Helvetica, sans-serif" font-size="18" font-weight="800" text-anchor="start" letter-spacing="0">Season-ready</text>
      <text x="598" y="422" fill="#9aa3ad" fill-opacity="1" font-family="Inter, Arial, Helvetica, sans-serif" font-size="13" font-weight="500"><tspan x="598" dy="0">Server flow, rewards, and</tspan><tspan x="598" dy="20">pacing matter.</tspan></text>
    
    </g>
  
    <g opacity="1">
      <rect x="748" y="340" width="154" height="138" rx="14" fill="url(#glass)" stroke="#ffffff" stroke-opacity=".105" filter="url(#shadow)"/>
      <path d="M766 341H884" stroke="#ffd166" stroke-opacity=".75" stroke-width="2.4" stroke-linecap="round"/>
      
      <circle cx="775" cy="382" r="10" fill="none" stroke="#ffd166" stroke-width="2.2" stroke-linecap="round" stroke-linejoin="round"/><path d="M775 363v7M775 394v7M756 382h7M787 382h7M762 369l5 5M784 391l5 5M788 369l-5 5M766 391l-5 5" fill="none" stroke="#ffd166" stroke-width="2.2" stroke-linecap="round" stroke-linejoin="round"/>
      <text x="820" y="387" fill="#f7f7f7" fill-opacity="1" font-family="Inter, Arial, Helvetica, sans-serif" font-size="18" font-weight="800" text-anchor="start" letter-spacing="0">Configurable</text>
      <text x="772" y="422" fill="#9aa3ad" fill-opacity="1" font-family="Inter, Arial, Helvetica, sans-serif" font-size="13" font-weight="500"><tspan x="772" dy="0">Less hardcoding, more owner</tspan><tspan x="772" dy="20">control.</tspan></text>
    
    </g>
  
      <path d="M70 522H930" stroke="#ffffff" stroke-opacity=".08"/>
      <text x="70" y="586" fill="#ff6262" fill-opacity="1" font-family="Inter, Arial, Helvetica, sans-serif" font-size="12" font-weight="900" text-anchor="start" letter-spacing="4">CLASSIC GAMEPLAY, REBUILT</text>
      <text x="70" y="632" fill="#f7f7f7" fill-opacity="1" font-family="Inter, Arial, Helvetica, sans-serif" font-size="38" font-weight="900" text-anchor="start" letter-spacing="0">Everything a real factions server expects.</text>
      
    <g opacity="1">
      <rect x="70" y="690" width="270" height="124" rx="14" fill="url(#glass)" stroke="#ffffff" stroke-opacity=".105" filter="url(#shadow)"/>
      <path d="M88 691H322" stroke="#ff6262" stroke-opacity=".75" stroke-width="2.4" stroke-linecap="round"/>
      
      <path d="M76 717v39l23-8 23 8 23-8V709l-23 8-23-8-23 8Z" fill="none" stroke="#ff6262" stroke-width="2.2" stroke-linecap="round" stroke-linejoin="round"/><path d="M99 709v39M122 717v39" fill="none" stroke="#ff6262" stroke-width="2.2" stroke-linecap="round" stroke-linejoin="round"/>
      <text x="142" y="737" fill="#f7f7f7" fill-opacity="1" font-family="Inter, Arial, Helvetica, sans-serif" font-size="18" font-weight="800" text-anchor="start" letter-spacing="0">Claims &amp; Map</text>
      <text x="94" y="772" fill="#9aa3ad" fill-opacity="1" font-family="Inter, Arial, Helvetica, sans-serif" font-size="13" font-weight="500"><tspan x="94" dy="0">Claim, unclaim, map, and</tspan><tspan x="94" dy="20">overclaim-ready foundations.</tspan></text>
    
    </g>
  
    <g opacity="1">
      <rect x="365" y="690" width="270" height="124" rx="14" fill="url(#glass)" stroke="#ffffff" stroke-opacity=".105" filter="url(#shadow)"/>
      <path d="M383 691H617" stroke="#ff6262" stroke-opacity=".75" stroke-width="2.4" stroke-linecap="round"/>
      
      <path d="M391 714l28 8v18c0 16-12 25-28 31-16-6-28-15-28-31V722l28-8Z" fill="none" stroke="#ff6262" stroke-width="2.2" stroke-linecap="round" stroke-linejoin="round"/><path d="m380 741 9 9 17-20" fill="none" stroke="#ff6262" stroke-width="2.2" stroke-linecap="round" stroke-linejoin="round"/>
      <text x="437" y="737" fill="#f7f7f7" fill-opacity="1" font-family="Inter, Arial, Helvetica, sans-serif" font-size="18" font-weight="800" text-anchor="start" letter-spacing="0">Factions &amp; Roles</text>
      <text x="389" y="772" fill="#9aa3ad" fill-opacity="1" font-family="Inter, Arial, Helvetica, sans-serif" font-size="13" font-weight="500"><tspan x="389" dy="0">Leader, coleader, mod,</tspan><tspan x="389" dy="20">member, invites, titles, and</tspan><tspan x="389" dy="20">promotions.</tspan></text>
    
    </g>
  
    <g opacity="1">
      <rect x="660" y="690" width="270" height="124" rx="14" fill="url(#glass)" stroke="#ffffff" stroke-opacity=".105" filter="url(#shadow)"/>
      <path d="M678 691H912" stroke="#ffd166" stroke-opacity=".75" stroke-width="2.4" stroke-linecap="round"/>
      
      <path d="M672 720l30 30M702 720l-30 30M667 755l8-8M707 755l-8-8M680 726l-8-8h12l6 6M694 726l8-8H690l-6 6" fill="none" stroke="#ffd166" stroke-width="2.2" stroke-linecap="round" stroke-linejoin="round"/>
      <text x="732" y="737" fill="#f7f7f7" fill-opacity="1" font-family="Inter, Arial, Helvetica, sans-serif" font-size="18" font-weight="800" text-anchor="start" letter-spacing="0">Relations</text>
      <text x="684" y="772" fill="#9aa3ad" fill-opacity="1" font-family="Inter, Arial, Helvetica, sans-serif" font-size="13" font-weight="500"><tspan x="684" dy="0">Ally, truce, enemy, neutral</tspan><tspan x="684" dy="20">behavior, and relation-aware</tspan><tspan x="684" dy="20">rules.</tspan></text>
    
    </g>
  
    <g opacity="1">
      <rect x="70" y="838" width="270" height="124" rx="14" fill="url(#glass)" stroke="#ffffff" stroke-opacity=".105" filter="url(#shadow)"/>
      <path d="M88 839H322" stroke="#ff6262" stroke-opacity=".75" stroke-width="2.4" stroke-linecap="round"/>
      
      <rect x="73" y="858" width="48" height="38" rx="7" fill="none" stroke="#ff6262" stroke-width="2.2" stroke-linecap="round" stroke-linejoin="round"/><path d="m84 873 8 7-8 7M99 887h12" fill="none" stroke="#ff6262" stroke-width="2.2" stroke-linecap="round" stroke-linejoin="round"/>
      <text x="142" y="885" fill="#f7f7f7" fill-opacity="1" font-family="Inter, Arial, Helvetica, sans-serif" font-size="18" font-weight="800" text-anchor="start" letter-spacing="0">Homes &amp; Warps</text>
      <text x="94" y="920" fill="#9aa3ad" fill-opacity="1" font-family="Inter, Arial, Helvetica, sans-serif" font-size="13" font-weight="500"><tspan x="94" dy="0">Faction homes, warps, icons,</tspan><tspan x="94" dy="20">menus, cooldowns, and</tspan><tspan x="94" dy="20">permissions.</tspan></text>
    
    </g>
  
    <g opacity="1">
      <rect x="365" y="838" width="270" height="124" rx="14" fill="url(#glass)" stroke="#ffffff" stroke-opacity=".105" filter="url(#shadow)"/>
      <path d="M383 839H617" stroke="#ffd166" stroke-opacity=".75" stroke-width="2.4" stroke-linecap="round"/>
      
      <path d="M367 870h50v30h-50zM373 870V862h38v8M367 882h50M390 882v8" fill="none" stroke="#ffd166" stroke-width="2.2" stroke-linecap="round" stroke-linejoin="round"/>
      <text x="437" y="885" fill="#f7f7f7" fill-opacity="1" font-family="Inter, Arial, Helvetica, sans-serif" font-size="18" font-weight="800" text-anchor="start" letter-spacing="0">TNT Systems</text>
      <text x="389" y="920" fill="#9aa3ad" fill-opacity="1" font-family="Inter, Arial, Helvetica, sans-serif" font-size="13" font-weight="500"><tspan x="389" dy="0">TNT bank, fill, siphon,</tspan><tspan x="389" dy="20">withdraw, and audit support.</tspan></text>
    
    </g>
  
    <g opacity="1">
      <rect x="660" y="838" width="270" height="124" rx="14" fill="url(#glass)" stroke="#ffffff" stroke-opacity=".105" filter="url(#shadow)"/>
      <path d="M678 839H912" stroke="#ff6262" stroke-opacity=".75" stroke-width="2.4" stroke-linecap="round"/>
      
      <path d="M664 862h18c6 0 9 4 9 9v31c0-5-3-9-9-9h-18V862ZM691 871c0-5 3-9 9-9h18v31H700c-6 0-9 4-9 9V871Z" fill="none" stroke="#ff6262" stroke-width="2.2" stroke-linecap="round" stroke-linejoin="round"/>
      <text x="732" y="885" fill="#f7f7f7" fill-opacity="1" font-family="Inter, Arial, Helvetica, sans-serif" font-size="18" font-weight="800" text-anchor="start" letter-spacing="0">Vaults &amp; Chest</text>
      <text x="684" y="920" fill="#9aa3ad" fill-opacity="1" font-family="Inter, Arial, Helvetica, sans-serif" font-size="13" font-weight="500"><tspan x="684" dy="0">PlayerVaults-backed faction</tspan><tspan x="684" dy="20">storage and clean access</tspan><tspan x="684" dy="20">flows.</tspan></text>
    
    </g>
  
    
</svg>